<?xml version="1.0" standalone="no"?>
<!DOCTYPE svg PUBLIC "-//W3C//DTD SVG 20010904//EN"
 "http://www.w3.org/TR/2001/REC-SVG-20010904/DTD/svg10.dtd">
<svg version="1.0" xmlns="http://www.w3.org/2000/svg"
 width="512.000000pt" height="512.000000pt" viewBox="0 0 512.000000 512.000000"
 preserveAspectRatio="xMidYMid meet">
<metadata>
Created by potrace 1.11, written by Peter Selinger 2001-2013
</metadata>
<g transform="translate(0.000000,512.000000) scale(0.100000,-0.100000)"
fill="#000000" stroke="none">
<path d="M2758 4826 c-1 -2 -30 -6 -63 -10 -178 -18 -331 -87 -461 -209 -121
-113 -201 -252 -238 -414 -16 -72 -22 -211 -11 -268 36 -190 170 -430 384
-685 160 -191 420 -445 701 -684 30 -26 209 -169 266 -213 l40 -32 45 35 c24
18 49 37 54 42 6 4 30 23 55 42 25 19 47 37 50 40 3 3 50 43 105 89 198 165
514 467 631 602 223 258 363 475 423 659 29 86 34 120 34 215 -1 337 -226 642
-553 748 -42 14 -98 28 -125 32 -57 7 -205 8 -226 1 -8 -3 -30 -7 -50 -10 -48
-7 -170 -52 -228 -83 -55 -30 -133 -88 -178 -132 -18 -17 -34 -31 -36 -31 -2
0 -19 15 -38 33 -138 129 -313 211 -479 223 -41 3 -80 7 -87 9 -6 2 -13 2 -15
1z"/>
<path d="M1657 2473 c-2 -1 -23 -3 -47 -4 -80 -3 -233 -40 -320 -76 -157 -66
-206 -105 -440 -348 -162 -169 -136 -163 -215 -48 -38 54 -71 102 -75 106 -4
5 -66 -31 -136 -80 -191 -132 -309 -214 -370 -254 l-54 -36 184 -269 c101
-148 194 -282 206 -299 12 -16 150 -217 307 -445 156 -228 286 -417 288 -419
3 -2 534 357 554 375 2 1 -18 33 -43 69 -37 53 -44 70 -35 81 18 22 139 99
190 122 113 49 139 51 709 51 294 1 555 3 580 5 312 24 746 158 1124 348 100
50 256 137 266 147 3 4 59 42 125 86 191 128 467 337 532 403 107 110 155 237
118 315 -35 75 -110 92 -250 57 -49 -12 -96 -26 -104 -31 -9 -4 -61 -29 -116
-55 -167 -78 -386 -189 -465 -236 l-75 -45 -7 -76 c-23 -254 -226 -421 -601
-492 -48 -9 -120 -17 -160 -18 -74 -1 -374 11 -437 18 -19 2 -64 6 -100 9
-105 8 -243 28 -285 40 -5 2 -24 7 -42 11 -41 9 -75 45 -63 65 7 12 32 15 117
15 115 0 298 -14 408 -30 166 -24 418 -25 573 0 131 20 301 92 379 159 56 49
96 131 96 199 -1 137 -114 212 -326 217 -201 4 -448 16 -517 25 -19 3 -69 7
-110 11 -87 7 -190 37 -603 175 -295 99 -416 130 -551 144 -68 8 -205 13 -209
8z"/>
</g>
</svg>
